<?xml version="1.0" encoding="UTF-8" standalone="no"?>
<!-- Created with Inkscape (http://www.inkscape.org/) -->

<svg
   width="243.896mm"
   height="92.175003mm"
   viewBox="0 0 243.89599 92.175003"
   version="1.1"
   id="svg1613"
   inkscape:version="1.2 (dc2aedaf03, 2022-05-15)"
   sodipodi:docname="enarx-word-black-v2.svg"
   inkscape:export-filename="/home/ben/documents/pictures/enarx-word-black-bg.png"
   inkscape:export-xdpi="76.199997"
   inkscape:export-ydpi="76.199997"
   xmlns:inkscape="http://www.inkscape.org/namespaces/inkscape"
   xmlns:sodipodi="http://sodipodi.sourceforge.net/DTD/sodipodi-0.dtd"
   xmlns="http://www.w3.org/2000/svg"
   xmlns:svg="http://www.w3.org/2000/svg"
   xmlns:rdf="http://www.w3.org/1999/02/22-rdf-syntax-ns#"
   xmlns:cc="http://creativecommons.org/ns#"
   xmlns:dc="http://purl.org/dc/elements/1.1/">
  <defs
     id="defs1607">
    <clipPath
       id="c0">
      <path
         d="M 15.4,369 V 19.8 H 329.5 V 369 Z"
         id="path1569" />
    </clipPath>
    <style
       type="text/css"
       id="style1572"><![CDATA[
.g0{
fill: #000001;
}
.g1{
fill: #FFFFFF;
}
.g2{
fill: #AFB4AF;
}
.g3{
fill: #CBD1C9;
}
.g4{
fill: none;
stroke: #AFB4AF;
stroke-width: 1.222;
stroke-linecap: butt;
stroke-linejoin: miter;
}
.g5{
fill: none;
stroke: #AFB4AF;
stroke-width: 1.527;
stroke-linecap: butt;
stroke-linejoin: miter;
}
]]></style>
  </defs>
  <sodipodi:namedview
     id="base"
     pagecolor="#ffffff"
     bordercolor="#666666"
     borderopacity="1.0"
     inkscape:pageopacity="0.0"
     inkscape:pageshadow="2"
     inkscape:zoom="1.860479"
     inkscape:cx="447.73416"
     inkscape:cy="134.91149"
     inkscape:document-units="mm"
     inkscape:current-layer="layer1"
     showgrid="false"
     inkscape:window-width="1920"
     inkscape:window-height="1043"
     inkscape:window-x="0"
     inkscape:window-y="0"
     inkscape:window-maximized="1"
     inkscape:pagecheckerboard="1"
     inkscape:object-paths="true"
     inkscape:snap-smooth-nodes="true"
     inkscape:snap-intersection-paths="false"
     inkscape:snap-object-midpoints="true"
     inkscape:snap-center="true"
     inkscape:snap-bbox="false"
     inkscape:snap-global="false"
     inkscape:snap-midpoints="false"
     inkscape:snap-others="true"
     inkscape:object-nodes="true"
     inkscape:snap-nodes="false"
     showguides="true"
     inkscape:guide-bbox="true"
     inkscape:snap-grids="true"
     inkscape:showpageshadow="0"
     inkscape:deskcolor="#d1d1d1" />
  <metadata
     id="metadata1610">
    <rdf:RDF>
      <cc:Work
         rdf:about="">
        <dc:format>image/svg+xml</dc:format>
        <dc:type
           rdf:resource="http://purl.org/dc/dcmitype/StillImage" />
      </cc:Work>
    </rdf:RDF>
  </metadata>
  <g
     inkscape:label="Layer 1"
     inkscape:groupmode="layer"
     id="layer1"
     transform="translate(-6.2977064,-232.10026)">
    <path
       style="display:inline;opacity:1;fill:#0a0a0a;fill-opacity:1;stroke:none;stroke-width:8.62016;stroke-linecap:round;stroke-linejoin:miter;stroke-miterlimit:4;stroke-dasharray:none;stroke-opacity:1;paint-order:stroke fill markers"
       d="m 9.2848132,235.22888 v 7.87342 h -6.443e-4 v 11.76946 H 54.219989 c -2.336621,1.80012 -4.599447,3.63018 -6.780465,5.48159 H 9.2841689 v 11.76946 H 34.855347 c -1.772978,1.83084 -3.461061,3.66121 -5.067757,5.48157 H 9.2841689 v 4.20463 c 0.5477539,2.56508 1.2610981,5.09196 2.1355541,7.56481 h 9.027702 c -1.311992,1.86604 -2.517427,3.69699 -3.611991,5.48158 h -3.159436 c 0.464294,0.97394 0.954456,1.93533 1.469972,2.88314 -1.415378,2.5193 -2.599792,4.93105 -3.523538,7.19106 -0.663186,1.556 1.697644,2.51995 2.313087,0.94446 6.412871,-15.68944 26.414078,-40.01926 54.799558,-58.15654 1.073824,-0.66725 0.590834,-2.32461 -0.673334,-2.31052 -0.238757,0.003 -0.471752,0.0737 -0.671398,0.20467 -1.767487,1.12937 -3.502156,2.28171 -5.203972,3.45315 v -2.06648 h 6.47e-4 V 235.22888 H 50.241315 v 7.87342 h -8.532553 v -7.87342 H 29.763057 v 7.87342 h -8.532551 v -7.87342 z m 52.0293878,20.39498 c -1.207177,1.6e-4 -2.185747,0.97875 -2.185913,2.18591 4.29e-4,0.7556 0.391005,1.45743 1.032918,1.85603 L 59.9727,271.66637 c -0.531773,0.41341 -0.8433,1.04886 -0.844412,1.7224 -1.95e-4,1.20744 0.978483,2.18641 2.185913,2.18657 1.207433,-1.6e-4 2.186109,-0.97913 2.185914,-2.18657 -4.56e-4,-0.75259 -0.38798,-1.45204 -1.025814,-1.85149 l 0.187861,-12.00963 c 0.528098,-0.41371 0.837004,-1.047 0.837953,-1.71788 -1.63e-4,-1.20716 -0.978736,-2.18575 -2.185914,-2.18591 z m -6.253029,8.9199 -4.050332,0.0825 c -0.281187,0.007 -0.551866,0.10813 -0.768233,0.28792 -2.099006,1.73502 -4.209182,3.50459 -6.363425,6.25238 -1.160345,0.0609 -2.070343,1.0188 -2.071646,2.18076 1.6e-4,1.20717 0.978736,2.18575 2.185915,2.1859 1.207427,1.9e-4 2.186392,-0.97849 2.186559,-2.1859 4.4e-5,-0.29018 -0.05767,-0.57745 -0.169787,-0.84508 1.82674,-2.28814 3.59994,-3.80625 5.508038,-5.3873 l 2.318256,-0.0466 v 4.36149 c -0.700286,0.38376 -1.135622,1.11882 -1.135565,1.91737 1.67e-4,1.20716 0.978738,2.18575 2.185915,2.18591 1.207178,-1.6e-4 2.18575,-0.97875 2.185914,-2.18591 -10e-4,-0.6251 -0.269643,-1.21986 -0.73789,-1.63396 v -5.92055 c 2.2e-5,-0.69955 -0.574297,-1.26282 -1.273719,-1.24919 z m -18.788791,14.45246 c -1.207181,1.6e-4 -2.185753,0.97873 -2.185913,2.18592 -1.94e-4,1.20743 0.978483,2.18641 2.185913,2.18656 0.717937,-8.1e-4 1.389714,-0.35407 1.79728,-0.94511 0.04846,0.006 0.09716,0.008 0.145899,0.008 h 20.47051 c 0.408367,0.58721 1.078153,0.93754 1.793405,0.93802 1.207434,-1.5e-4 2.186108,-0.97912 2.185914,-2.18655 -1.57e-4,-1.20718 -0.978732,-2.18576 -2.185914,-2.18593 -0.713756,9.4e-4 -1.382036,0.35053 -1.79018,0.93611 H 38.21556 c -0.04851,-7.7e-4 -0.09698,9.5e-4 -0.145254,0.007 -0.40827,-0.59026 -1.080238,-0.94252 -1.797925,-0.94254 z m 16.309786,7.14006 c -0.733407,3e-4 -1.417803,0.3683 -1.822457,0.97999 l -21.134805,0.0407 c -0.338955,7.1e-4 -0.663072,0.13912 -0.897994,0.38349 -1.998667,2.07883 -3.303007,3.97649 -4.571309,6.04644 -0.893215,0.29667 -1.496298,1.13173 -1.497087,2.07292 -2e-4,1.20745 0.978478,2.18642 2.185914,2.18658 1.207436,-1.6e-4 2.186113,-0.97913 2.185913,-2.18658 -8.7e-4,-0.46188 -0.147992,-0.91161 -0.420266,-1.28467 1.042253,-1.64501 2.113323,-3.11765 3.600368,-4.71915 l 20.611243,-0.0414 c 0.411148,0.56117 1.064819,0.89317 1.76048,0.89414 1.207429,-1.6e-4 2.186105,-0.97912 2.185913,-2.18657 -1.65e-4,-1.20717 -0.978737,-2.18574 -2.185913,-2.18592 z m 6.957998,0 c -1.207178,1.7e-4 -2.18575,0.97872 -2.185915,2.18592 9.45e-4,0.47761 0.158345,0.94174 0.448031,1.32148 -0.491852,1.32488 -1.065641,2.6168 -1.715938,3.87989 -1.145863,0.0783 -2.035874,1.02965 -2.037432,2.17819 -1.95e-4,1.20743 0.978482,2.18638 2.185913,2.18655 1.207684,2.2e-4 2.186756,-0.97887 2.186562,-2.18655 -6.69e-4,-0.30596 -0.06554,-0.60836 -0.190448,-0.88769 0.740186,-1.42435 1.39292,-2.89037 1.948346,-4.40086 0.919487,-0.28091 1.547531,-1.12958 1.54744,-2.09101 -1.65e-4,-1.20744 -0.979129,-2.18613 -2.186559,-2.18592 z m -26.382678,8.46281 c -0.42696,1.3e-4 -0.824292,0.2183 -1.053578,0.57845 l -3.737228,5.84567 c -1.117811,0.11158 -1.969104,1.05223 -1.969,2.17558 1.65e-4,1.20719 0.978738,2.18576 2.185913,2.18593 1.207431,2e-4 2.186396,-0.97849 2.186562,-2.18593 -8.82e-4,-0.32977 -0.07638,-0.6551 -0.220788,-0.95156 l 3.291782,-5.14715 13.216839,0.0149 2.526777,4.96187 c -0.203696,0.33888 -0.311681,0.72664 -0.312457,1.122 1.65e-4,1.20743 0.979128,2.18611 2.186558,2.18592 1.207177,-1.6e-4 2.185749,-0.97873 2.185913,-2.18592 -3.87e-4,-1.05015 -0.747404,-1.95165 -1.779201,-2.14716 l -2.928324,-5.75208 c -0.212842,-0.41911 -0.642912,-0.68328 -1.112969,-0.68365 z m -12.844343,6.41317 c -1.20743,1.6e-4 -2.186107,0.97911 -2.185912,2.18653 0.0013,1.0147 0.700755,1.89503 1.688819,2.12588 0.826969,1.39019 1.855786,3.06471 4.794035,5.7114 -7.67e-4,0.0146 -0.0013,0.0287 -0.0019,0.0433 1.6e-4,1.20744 0.979126,2.1861 2.186558,2.18592 1.207181,-1.7e-4 2.185756,-0.97872 2.185916,-2.18592 1.9e-4,-1.20744 -0.978483,-2.18639 -2.185916,-2.18655 -0.239231,6.4e-4 -0.476728,0.0407 -0.703027,0.11803 -2.38586,-2.15682 -3.206813,-3.40209 -3.936712,-4.63393 0.225074,-0.35173 0.344702,-0.76058 0.344736,-1.17819 1.94e-4,-1.20766 -0.978876,-2.18672 -2.186558,-2.18654 z m 16.716497,0 c -1.207681,-2e-4 -2.186753,0.97886 -2.18656,2.18653 1.62e-4,1.20745 0.979131,2.18613 2.18656,2.18593 1.207179,-1.7e-4 2.185749,-0.97874 2.185915,-2.18593 1.94e-4,-1.20742 -0.978482,-2.18637 -2.185915,-2.18653 z m 6.94315,0 c -1.207431,1.6e-4 -2.186109,0.97911 -2.185917,2.18653 0.0012,0.71388 0.350935,1.38218 0.936731,1.79019 l -0.06456,7.82694 c -1.896296,2.1536 -3.906929,4.03973 -6.036766,5.6604 -1.131354,-0.86098 -2.217044,-1.72125 -3.018056,-2.67398 l 0.01485,-3.41831 1.893468,-0.022 c 0.410689,0.5666 1.067797,0.90238 1.767582,0.90318 1.207181,-1.7e-4 2.185755,-0.97873 2.185913,-2.18592 1.95e-4,-1.20744 -0.978481,-2.18639 -2.185913,-2.18655 -0.729053,5e-4 -1.409877,0.36438 -1.815355,0.9703 l -3.105211,0.0347 c -0.682051,0.009 -1.23146,0.56194 -1.234336,1.24404 l -0.02196,5.18715 c -0.0012,0.28123 0.09251,0.55463 0.265976,0.77599 1.290365,1.6492 2.945195,2.88378 4.531287,4.0555 0.434629,0.32061 1.026066,0.32564 1.466097,0.0119 2.747858,-1.95621 5.194405,-4.36765 7.480912,-6.99995 0.1951,-0.22504 0.303395,-0.51238 0.305357,-0.81021 l 0.06906,-8.3705 c 0.586972,-0.40852 0.937044,-1.07829 0.937375,-1.79343 1.93e-4,-1.20764 -0.978876,-2.18671 -2.18656,-2.18652 z"
       id="rect1593-3-5"
       inkscape:export-xdpi="96"
       inkscape:export-ydpi="96"
       inkscape:connector-curvature="0"
       sodipodi:nodetypes="ccccccccccccccccccccscccccccccccccccccccccccccccccccsccccccccccccccccccccccccccccscccccccccccccccccccccccccccccccccccccccsccccccccccssccccccccccccccccccccccccccccc" />
    <g
       id="g3481"
       style="fill:#000000;stroke:none;stroke-width:0.661655;stroke-linecap:round;stroke-miterlimit:4;stroke-dasharray:none;stroke-opacity:1;paint-order:stroke fill markers"
       transform="matrix(8.5528917,0,0,8.5528917,-770.23291,-2129.085)">
      <g
         id="g442">
        <path
           d="m 99.376299,283.51914 h 3.889371 v -1.05833 h -2.67229 v -0.92604 h 1.74625 v -1.00542 h -1.74625 v -0.87313 h 2.64584 v -1.05833 h -3.862921 z"
           class="g1"
           id="path1696"
           style="fill:#000000;stroke:none;stroke-width:0.661655;stroke-linecap:round;stroke-miterlimit:4;stroke-dasharray:none;stroke-opacity:1;paint-order:stroke fill markers" />
        <path
           d="m 103.92713,283.51914 h 1.13771 v -2.51354 c 0.13229,-0.18521 0.37042,-0.29104 0.66146,-0.29104 0.39687,0 0.66146,0.26458 0.66146,0.66146 v 2.14312 h 1.13771 v -2.27542 c 0,-0.89958 -0.60855,-1.50812 -1.48167,-1.50812 -0.37042,0 -0.71438,0.10583 -0.97896,0.3175 v -0.23813 h -1.13771 z"
           class="g1"
           id="path1698"
           style="fill:#000000;stroke:none;stroke-width:0.661655;stroke-linecap:round;stroke-miterlimit:4;stroke-dasharray:none;stroke-opacity:1;paint-order:stroke fill markers" />
        <path
           d="m 109.37755,283.57206 c 0.39687,0 0.74083,-0.0794 1.03187,-0.29104 v 0.23812 h 1.11125 v -2.38125 c 0,-0.89958 -0.58208,-1.40229 -1.61395,-1.40229 -0.58209,0 -1.13771,0.13229 -1.7198,0.39687 l 0.39688,0.84667 c 0.47625,-0.21167 0.82021,-0.29104 1.11125,-0.29104 0.47625,0 0.71437,0.18521 0.71437,0.55562 v 0.18521 c -0.26458,-0.0794 -0.55562,-0.10583 -0.84666,-0.10583 -0.9525,0 -1.50813,0.39687 -1.50813,1.11125 0,0.66146 0.52917,1.13771 1.32292,1.13771 z m -0.26458,-1.16417 c 0,-0.23812 0.23812,-0.37042 0.60854,-0.37042 0.23812,0 0.47625,0.0265 0.68791,0.0794 v 0.47625 c -0.21166,0.13229 -0.42333,0.18521 -0.71437,0.18521 -0.37042,0 -0.58208,-0.15875 -0.58208,-0.37042 z"
           class="g1"
           id="path1700"
           style="fill:#000000;stroke:none;stroke-width:0.661655;stroke-linecap:round;stroke-miterlimit:4;stroke-dasharray:none;stroke-opacity:1;paint-order:stroke fill markers" />
        <path
           d="m 112.18213,283.51914 h 1.13771 v -2.35479 c 0.21167,-0.29104 0.50271,-0.47625 0.87313,-0.47625 0.1852,0 0.39687,0.0529 0.52916,0.10583 v -0.97896 c -0.0794,-0.0529 -0.21166,-0.0794 -0.42333,-0.0794 -0.39688,0 -0.71438,0.15875 -0.97896,0.44979 v -0.37042 h -1.13771 z"
           class="g1"
           id="path1702"
           style="fill:#000000;stroke:none;stroke-width:0.661655;stroke-linecap:round;stroke-miterlimit:4;stroke-dasharray:none;stroke-opacity:1;paint-order:stroke fill markers" />
        <path
           d="m 114.82797,283.51914 h 1.27 l 0.76729,-1.05833 0.76729,1.05833 h 1.32291 l -1.42875,-1.905 1.34938,-1.79917 h -1.27 l -0.71438,0.97896 -0.71437,-0.97896 h -1.32292 l 1.37584,1.82563 z"
           class="g1"
           id="path1704"
           style="fill:#000000;stroke:none;stroke-width:0.661655;stroke-linecap:round;stroke-miterlimit:4;stroke-dasharray:none;stroke-opacity:1;paint-order:stroke fill markers" />
      </g>
    </g>
  </g>
</svg>
